<svg id="Layer_1" data-name="Layer 1" xmlns="http://www.w3.org/2000/svg" viewBox="0 0 284.01 242.77"><defs><style>.cls-1{font-size:29.03px;font-family:OldEnglishTextMT, Old English Text MT;}.cls-2{font-size:12.1px;letter-spacing:0em;}</style></defs><title>zaman wolf logo</title><path d="M219.84,22.62c-14.77,7.87-30.08,10.78-41.4,8-7.87-2.05-11.64-1.73-23.07,1.83-14.34,4.31-36.56,5.39-50.46,2.16C93.58,32,98.11,47.2,112.13,59.06l6.68,5.61h-7.65c-4.31,0-7.76.86-7.76,2.15,0,3.67-12.3,10.79-23.72,13.7-11,2.8-11.11,2.91-5.4,5.5L80,88.6,70,99.39c-13.15,14.12-18.44,26.41-19.62,45.82l-1,15.53,4.07-14.39c3.24-12,13.48-32,16.39-32,.43,0-1.51,5.61-4.31,12.4-9.6,23.51-5.82,49.49,9.38,63.83l6.47,6-6-12C61.65,157.35,68.22,117,89.79,96.76l5.28-5-5.28,9.59A92.68,92.68,0,0,0,78,152.82c5.18,86.69,130,68,153.65-22.86,4.74-18.54,4.09-21-1.84-6.46-11.64,28.35-37.09,49.59-66,55.31l-9.71,1.94,10.14.21a50.07,50.07,0,0,0,15.85-2.15c3.23-1.19,6.25-1.73,6.79-1.3,2.16,2.16-23.07,8.63-33.42,8.41C101.89,185,81.94,115,124.74,85.33c10.46-7.34,11.43-7.12,7.55,2.15-5.71,13.7-2.91,18.76,3.88,7.23,18-30.62,67.61-65.13,87.88-61,8,1.62,8.09,2.8,1.18,9.38-2.91,2.8-5.39,3.88-5.39,2.48,0-3.45-18.43,9.17-20.27,13.8-2.69,7.23-1.18,10.78,2.16,4.75,3.56-6.47,5.28-7.23,9.16-3.35,2.05,2.16,2.59,1.51,2.59-2.15s1.3-4.75,6-4.75c14.23,0,20.81-10.13,16.28-25.55C231.92,15.61,232.57,15.82,219.84,22.62ZM177.69,38.53c1.29,2.16-11.22,7.87-13.16,5.93-.75-.75,0-2.8,1.4-4.63C168.84,36.38,175.74,35.56,177.69,38.53Z" transform="translate(-7.99 -18.01)"/><path d="M222,63.59c0,1.94-2.05,3.23-4.85,3.34-4,0-3.67.54,2.26,3.13,13.16,5.71-.21,11.86-25.87,11.86-10.14,0-15.32,1-17.8,3.34-5.39,5.5-4.31,9.17,2.59,7.87,5.72-1,5.82-1,2.27,3.13-5.83,6.47-10.35,21.56-10.25,34v11L174.23,129c7.23-22.65,21-36.45,43.78-44,12.51-4.32,18.22-12.4,11.86-17a8.76,8.76,0,0,1-3.66-5.18,2.35,2.35,0,0,0-2.16-2.48C223,60.35,222,61.76,222,63.59Z" transform="translate(-7.99 -18.01)"/><path d="M218.87,120.3c-5.82,18.55-29.32,26.1-31.37,10.14l-1.19-8.63L183.72,132c-6.14,23.07,4.1,30.73,20.81,15.74,7.55-6.9,19.2-28,16.72-30.51C220.71,116.53,219.63,118,218.87,120.3Z" transform="translate(-7.99 -18.01)"/><path d="M216.07,176.91,209,185l9.28,7.11c5.06,3.88,8,5.72,6.47,4.1-6.47-7.12-1.84-6.25,7.54,1.29l10.25,8.31L236,197.29l-6.36-8.63,6.46,4.64a60.84,60.84,0,0,1,9.39,8.09c9.91,12,4.2.1-6.8-14.13C222.43,166.24,224.59,167.21,216.07,176.91Z" transform="translate(-7.99 -18.01)"/><text class="cls-1" transform="translate(0 236.5)">Zaman Tiling Group <tspan class="cls-2" x="254.47" y="0">pty ltd</tspan></text></svg>