<svg xmlns="http://www.w3.org/2000/svg" width="50" height="40.633" viewBox="0 0 50 40.633">
  <path id="icon-twitter" d="M50,5.058a20.479,20.479,0,0,1-5.892,1.615A10.275,10.275,0,0,0,48.619,1,20.55,20.55,0,0,1,42.1,3.488a10.265,10.265,0,0,0-17.481,9.354A29.121,29.121,0,0,1,3.481,2.125a10.271,10.271,0,0,0,3.173,13.7A10.215,10.215,0,0,1,2.01,14.538a10.266,10.266,0,0,0,8.227,10.187A10.281,10.281,0,0,1,5.6,24.9a10.267,10.267,0,0,0,9.583,7.123A20.625,20.625,0,0,1,0,36.273a29.042,29.042,0,0,0,15.725,4.608c19.046,0,29.806-16.085,29.156-30.512A20.885,20.885,0,0,0,50,5.058Z" transform="translate(0 -0.248)" fill="#320e85"/>
</svg>
